<?xml version="1.0" encoding="UTF-8"?>
<!DOCTYPE svg PUBLIC "-//W3C//DTD SVG 1.1//EN" "http://www.w3.org/Graphics/SVG/1.1/DTD/svg11.dtd">
<svg xmlns="http://www.w3.org/2000/svg" version="1.1" width="2272px" height="2272px" style="shape-rendering:geometricPrecision; text-rendering:geometricPrecision; image-rendering:optimizeQuality; fill-rule:evenodd; clip-rule:evenodd" xmlns:xlink="http://www.w3.org/1999/xlink">
<g><path style="opacity:0.996" fill="#621500" d="M 1688.5,862.5 C 1687.25,869.137 1687.42,875.804 1689,882.5C 1690.67,889.507 1693.17,896.174 1696.5,902.5C 1684.73,905.966 1672.73,907.133 1660.5,906C 1636.85,900.565 1626.69,885.732 1630,861.5C 1630.67,857.5 1631.33,853.5 1632,849.5C 1641.99,818.176 1651.99,786.843 1662,755.5C 1671.27,725.236 1672.94,694.569 1667,663.5C 1664.56,652.84 1660.56,642.84 1655,633.5C 1653.43,631.007 1651.43,629.007 1649,627.5C 1645.32,631.518 1642.65,636.185 1641,641.5C 1630.89,693.168 1612.89,741.835 1587,787.5C 1567.72,818.132 1545.38,846.465 1520,872.5C 1491.3,899.53 1463.64,927.53 1437,956.5C 1398.78,1000.6 1372.95,1051.27 1359.5,1108.5C 1358.66,1108.84 1358.33,1109.51 1358.5,1110.5C 1347.26,1106.36 1336.26,1101.52 1325.5,1096C 1324.06,1095.22 1322.72,1095.39 1321.5,1096.5C 1325.71,1112.22 1330.04,1127.89 1334.5,1143.5C 1321.74,1137.91 1308.74,1132.91 1295.5,1128.5C 1259.45,1116.66 1222.45,1109.49 1184.5,1107C 1125.23,1102.41 1066.56,1106.41 1008.5,1119C 966.752,1128.72 928.419,1145.72 893.5,1170C 892.29,1171.04 891.29,1172.21 890.5,1173.5C 858.403,1197.1 832.903,1226.43 814,1261.5C 800.462,1287.24 789.128,1313.91 780,1341.5C 764.859,1382.76 751.026,1424.42 738.5,1466.5C 718.565,1528.77 705.065,1592.43 698,1657.5C 694.778,1694.08 696.444,1730.41 703,1766.5C 717.524,1835.43 756.024,1885.93 818.5,1918C 863.137,1940.1 910.137,1954.77 959.5,1962C 1016.99,1970.77 1074.82,1974.93 1133,1974.5C 1184.18,1974.65 1235.02,1971.65 1285.5,1965.5C 1301.49,1963.93 1317.15,1961.27 1332.5,1957.5C 1349.16,1967.38 1365.49,1977.72 1381.5,1988.5C 1379.33,1989.27 1377.17,1990.27 1375,1991.5C 1374.67,1991.17 1374.33,1990.83 1374,1990.5C 1371.93,1991.39 1369.76,1992.06 1367.5,1992.5C 1366.35,1992.82 1365.52,1993.48 1365,1994.5C 1364.44,1993.98 1363.77,1993.64 1363,1993.5C 1357.27,1994.61 1351.77,1996.27 1346.5,1998.5C 1344.36,1997.05 1342.52,1997.38 1341,1999.5C 1336.89,1998.85 1332.89,1999.52 1329,2001.5C 1328.59,2001.04 1328.09,2000.71 1327.5,2000.5C 1324.33,2001.13 1321.33,2002.13 1318.5,2003.5C 1317.56,2003.39 1316.72,2003.06 1316,2002.5C 1305.42,2004.08 1294.92,2006.08 1284.5,2008.5C 1283.39,2007.98 1282.23,2007.64 1281,2007.5C 1265.01,2009.77 1249.01,2011.77 1233,2013.5C 1231.26,2012.87 1229.43,2012.54 1227.5,2012.5C 1217.41,2012.91 1207.41,2013.91 1197.5,2015.5C 1192.26,2015.38 1187.1,2015.04 1182,2014.5C 1177.9,2014.8 1173.9,2015.47 1170,2016.5C 1149.36,2015.24 1128.19,2015.24 1106.5,2016.5C 1100.88,2015.67 1095.21,2015 1089.5,2014.5C 1078.15,2015.13 1066.98,2015.13 1056,2014.5C 1036.74,2012.34 1017.41,2010.34 998,2008.5C 958.901,2004.39 921.068,1997.39 884.5,1987.5C 846.301,1976.94 809.634,1961.44 774.5,1941C 764.167,1933.17 753.833,1925.33 743.5,1917.5C 696.927,1874.91 669.26,1823.08 660.5,1762C 658.232,1745.64 656.232,1729.31 654.5,1713C 655.236,1650.32 663.569,1588.15 679.5,1526.5C 679.291,1525.91 678.957,1525.41 678.5,1525C 680.336,1522.51 681.336,1519.67 681.5,1516.5C 670.179,1517.42 658.846,1518.26 647.5,1519C 591.102,1522.99 535.602,1517.49 481,1502.5C 410.872,1483.71 350.372,1448.87 299.5,1398C 258.208,1356.36 228.208,1308.03 209.5,1253C 209.095,1252.05 208.428,1251.39 207.5,1251C 207.833,1250.67 208.167,1250.33 208.5,1250C 199.104,1221.67 195.604,1192.84 198,1163.5C 199.555,1144.47 207.055,1128.3 220.5,1115C 232.582,1105.56 246.248,1102.23 261.5,1105C 293.58,1115.99 326.58,1121.15 360.5,1120.5C 377.531,1120.31 394.531,1119.48 411.5,1118C 465.141,1111.75 518.807,1105.75 572.5,1100C 616.015,1095.75 659.349,1097.09 702.5,1104C 752.295,1112.89 794.628,1135.39 829.5,1171.5C 832.993,1168.84 835.993,1165.67 838.5,1162C 827.538,1137.33 811.871,1115 791.5,1095C 768.62,1075.88 742.62,1064.55 713.5,1061C 697.886,1058.97 682.219,1058.31 666.5,1059C 635.247,1060.51 604.08,1064.01 573,1069.5C 571.351,1068.1 570.018,1068.44 569,1070.5C 562.453,1069.79 555.953,1070.46 549.5,1072.5C 548.914,1072.29 548.414,1071.96 548,1071.5C 537.937,1072.8 527.937,1074.47 518,1076.5C 517.107,1075.92 516.107,1075.59 515,1075.5C 494.807,1077.53 474.64,1079.53 454.5,1081.5C 437.965,1080.7 421.465,1080.7 405,1081.5C 397.278,1079.86 389.445,1078.86 381.5,1078.5C 195.735,1060.75 77.7345,963.247 27.5,786C 20.6104,763.535 15.1104,739.701 11,714.5C 6.81,689.144 3.81,663.144 2,636.5C 1.69055,635.234 1.19055,634.067 0.5,633C 1.13943,630.589 1.47276,628.089 1.5,625.5C 0.957938,610.669 0.291271,596.002 -0.5,581.5C -0.5,576.833 -0.5,572.167 -0.5,567.5C 0.410028,510.053 5.91003,452.72 16,395.5C 21.8114,361.879 30.8114,329.545 43,298.5C 48.2962,286.06 55.4629,274.893 64.5,265C 77.7539,254.358 92.0873,252.691 107.5,260C 118.084,268.603 125.584,279.436 130,292.5C 133.289,301.654 135.955,310.987 138,320.5C 145.146,367.856 152.479,415.189 160,462.5C 170.757,526.528 185.757,589.528 205,651.5C 213.907,678.554 224.573,704.888 237,730.5C 245.411,746.826 255.911,761.659 268.5,775C 275.556,781.527 283.889,785.36 293.5,786.5C 304.537,785.288 309.204,779.121 307.5,768C 305.954,747.589 301.62,727.923 294.5,709C 294.957,708.586 295.291,708.086 295.5,707.5C 284.495,670.985 275.495,634.152 268.5,597C 269.081,596.107 269.415,595.107 269.5,594C 262.045,553.399 266.211,514.232 282,476.5C 289.16,459.026 300.326,444.859 315.5,434C 333.723,425.598 349.223,429.098 362,444.5C 365.445,449.055 368.112,454.055 370,459.5C 390.369,552.607 420.702,642.274 461,728.5C 479.545,768.385 505.045,803.218 537.5,833C 551.675,845.259 567.341,855.259 584.5,863C 590.642,865.732 596.975,866.565 603.5,865.5C 604.083,863.452 604.083,861.619 603.5,860C 592.924,835.861 583.924,811.861 576.5,788C 572.128,775.091 568.294,761.258 565,746.5C 557.255,713.839 557.922,680.505 567,646.5C 571.821,626.346 581.654,609.18 596.5,595C 619.264,579.929 639.43,582.762 657,603.5C 660.401,608.577 663.401,613.911 666,619.5C 673.864,647.953 682.197,676.287 691,704.5C 707.073,747.508 730.073,786.174 760,820.5C 768,829.167 776,837.833 784,846.5C 814.729,875.228 844.062,905.228 872,936.5C 909.989,982.807 936.656,1035.14 952,1093.5C 995.784,1077.73 1040.95,1068.56 1087.5,1066C 1152.63,1061.01 1216.97,1066.01 1280.5,1081C 1293.75,1084.4 1306.75,1088.56 1319.5,1093.5C 1334.59,1035.98 1360.76,984.311 1398,938.5C 1406.04,930.13 1413.71,921.464 1421,912.5C 1450.67,883.166 1480,853.499 1509,823.5C 1556.36,769.438 1586.69,706.772 1600,635.5C 1603.89,622.384 1609.89,610.384 1618,599.5C 1630.62,585.887 1645.78,582.054 1663.5,588C 1675.23,593.729 1684.4,602.229 1691,613.5C 1708.19,646.779 1714.86,682.112 1711,719.5C 1708.56,739.91 1704.23,759.91 1698,779.5C 1688.87,808.555 1678.37,837.055 1666.5,865C 1668.37,865.985 1670.37,866.485 1672.5,866.5C 1678.02,865.788 1683.35,864.454 1688.5,862.5 Z"/></g>
<g><path style="opacity:1" fill="#333232" d="M 2271.5,536.5 C 2271.5,561.5 2271.5,586.5 2271.5,611.5C 2269.14,672.492 2259.64,732.492 2243,791.5C 2226.53,848.107 2200.37,899.44 2164.5,945.5C 2154.84,956.494 2144.84,967.161 2134.5,977.5C 2133.5,977.833 2132.83,978.5 2132.5,979.5C 2095.16,1012.74 2054.99,1036.74 2012,1051.5C 2006.91,1054.62 2001.74,1056.62 1996.5,1057.5C 1990.87,1058.6 1985.21,1060.6 1979.5,1063.5C 1976.95,1062.72 1974.62,1063.39 1972.5,1065.5C 1969.44,1064.64 1966.61,1065.3 1964,1067.5C 1963.23,1067.36 1962.56,1067.02 1962,1066.5C 1956.9,1067.86 1951.9,1069.53 1947,1071.5C 1946.13,1071.26 1945.29,1070.93 1944.5,1070.5C 1938.3,1071.67 1932.3,1073.34 1926.5,1075.5C 1924.21,1073.98 1922.21,1074.31 1920.5,1076.5C 1917.71,1074.96 1915.21,1075.29 1913,1077.5C 1910.36,1075.94 1908.02,1076.27 1906,1078.5C 1900.4,1077.82 1894.9,1077.82 1889.5,1078.5C 1887.25,1078.93 1885.08,1079.6 1883,1080.5C 1879.21,1079.69 1875.37,1079.36 1871.5,1079.5C 1851.17,1079.5 1830.83,1079.5 1810.5,1079.5C 1805.43,1079.5 1800.59,1079.83 1796,1080.5C 1793.75,1079.02 1791.25,1078.35 1788.5,1078.5C 1784.44,1079.54 1780.77,1079.21 1777.5,1077.5C 1775.31,1077.59 1773.31,1078.26 1771.5,1079.5C 1769.2,1076.55 1766.37,1075.88 1763,1077.5C 1761.13,1076.93 1759.3,1076.27 1757.5,1075.5C 1753.47,1075.62 1749.47,1075.62 1745.5,1075.5C 1737.92,1073.76 1730.25,1072.43 1722.5,1071.5C 1721.17,1071.83 1719.83,1072.17 1718.5,1072.5C 1714.5,1071.5 1710.5,1070.5 1706.5,1069.5C 1704.97,1069.53 1703.8,1070.2 1703,1071.5C 1702.63,1070.58 1702.13,1069.75 1701.5,1069C 1697.98,1068.62 1694.48,1068.12 1691,1067.5C 1689.89,1067.59 1688.89,1067.92 1688,1068.5C 1685.24,1066.3 1682.24,1065.96 1679,1067.5C 1678.48,1066.48 1677.65,1065.82 1676.5,1065.5C 1672.45,1064.82 1668.28,1064.82 1664,1065.5C 1663.33,1064.83 1662.67,1064.17 1662,1063.5C 1661.02,1064.77 1660.19,1064.77 1659.5,1063.5C 1673.13,1052.87 1685.46,1040.87 1696.5,1027.5C 1715.35,1007.61 1723.69,983.939 1721.5,956.5C 1716.91,936.668 1708.58,918.668 1696.5,902.5C 1693.17,896.174 1690.67,889.507 1689,882.5C 1687.42,875.804 1687.25,869.137 1688.5,862.5C 1714.85,849.897 1737.68,832.564 1757,810.5C 1773.71,790.11 1788.71,768.443 1802,745.5C 1844.17,660.752 1875.33,573.419 1895.5,483.5C 1897.14,465.801 1904.14,450.301 1916.5,437C 1932,426.789 1947.34,427.122 1962.5,438C 1979.23,454.284 1990.73,473.784 1997,496.5C 2004.08,523.402 2006.42,550.736 2004,578.5C 2001.96,601.097 1998.29,623.431 1993,645.5C 1984.67,677.167 1976.33,708.833 1968,740.5C 1965.85,750.068 1964.35,759.734 1963.5,769.5C 1964.38,783.775 1971.71,788.941 1985.5,785C 1990.45,783.194 1995.11,780.861 1999.5,778C 2017.75,760.025 2031.91,739.192 2042,715.5C 2063.2,665.863 2079.87,613.863 2092,559.5C 2109.4,482.226 2122.24,406.059 2130.5,331C 2132.47,325.436 2134.14,319.769 2135.5,314C 2138.46,298.196 2144.46,283.363 2153.5,269.5C 2163.11,257.703 2175.44,253.203 2190.5,256C 2202.67,260.499 2212.17,268.333 2219,279.5C 2233.49,307.302 2243.82,336.636 2250,367.5C 2261.82,423.389 2268.99,479.723 2271.5,536.5 Z"/></g>
<g><path style="opacity:1" fill="#90492f" d="M 912.5,1109.5 C 892.519,1068.35 864.853,1033.18 829.5,1004C 799.853,982.015 766.853,967.348 730.5,960C 700.287,954.201 669.787,951.367 639,951.5C 576.471,954.835 513.971,958.669 451.5,963C 405.073,966.084 359.406,961.751 314.5,950C 262.565,934.39 218.731,906.223 183,865.5C 129.441,804.717 94.1077,734.384 77,654.5C 59.8147,568.691 56.8147,482.358 68,395.5C 71.9072,366.552 77.0739,337.886 83.5,309.5C 84.7925,306.263 86.6258,303.263 89,300.5C 93.0008,309.503 96.0008,318.836 98,328.5C 104.166,369.494 110.332,410.494 116.5,451.5C 128.122,523.655 144.622,594.655 166,664.5C 178.647,705.786 196.647,744.453 220,780.5C 232.129,798.633 247.963,812.466 267.5,822C 287.434,829.527 307.101,828.86 326.5,820C 336.329,814.502 342.829,806.336 346,795.5C 349.466,775.79 349.132,756.123 345,736.5C 336.335,703.171 327.669,669.838 319,636.5C 310.122,602.694 306.789,568.361 309,533.5C 311.421,511.894 318.754,492.227 331,474.5C 349.77,556.811 375.77,636.811 409,714.5C 428.964,762.473 455.964,805.806 490,844.5C 507.223,863.008 526.723,878.508 548.5,891C 561.714,898.182 575.714,903.182 590.5,906C 631.203,909.635 647.703,891.469 640,851.5C 629.644,817.411 618.977,783.411 608,749.5C 599.04,719.317 598.373,688.984 606,658.5C 608.725,648.385 613.059,639.051 619,630.5C 620.113,628.671 621.613,627.837 623.5,628C 628.006,634.498 631.173,641.665 633,649.5C 647.859,727.238 681.526,795.238 734,853.5C 763.639,884.139 793.639,914.472 824,944.5C 868.104,991.359 897.604,1046.36 912.5,1109.5 Z"/></g>
<g><path style="opacity:1" fill="#666666" d="M 2187.5,308.5 C 2210.06,404.538 2215.56,501.538 2204,599.5C 2194.47,681.446 2166.8,756.446 2121,824.5C 2097.29,857.882 2069.12,887.048 2036.5,912C 1989.72,943.259 1938.05,959.925 1881.5,962C 1837.43,963.831 1793.43,962.664 1749.5,958.5C 1744.01,934.703 1737.34,911.203 1729.5,888C 1756.48,869.862 1780.14,848.029 1800.5,822.5C 1813.22,847.385 1830.22,868.885 1851.5,887C 1867.44,899.133 1885.44,905.3 1905.5,905.5C 2012.68,898.345 2088.51,846.011 2133,748.5C 2150.57,707.557 2161.57,664.89 2166,620.5C 2172.13,567.502 2170.13,514.836 2160,462.5C 2159.25,457.789 2157.75,453.456 2155.5,449.5C 2161.52,408.498 2167.69,367.498 2174,326.5C 2176.01,317.481 2179.01,308.814 2183,300.5C 2185.16,302.817 2186.66,305.484 2187.5,308.5 Z"/></g>
<g><path style="opacity:1" fill="#702c13" d="M 83.5,309.5 C 77.0739,337.886 71.9072,366.552 68,395.5C 56.8147,482.358 59.8147,568.691 77,654.5C 94.1077,734.384 129.441,804.717 183,865.5C 218.731,906.223 262.565,934.39 314.5,950C 359.406,961.751 405.073,966.084 451.5,963C 513.971,958.669 576.471,954.835 639,951.5C 669.787,951.367 700.287,954.201 730.5,960C 766.853,967.348 799.853,982.015 829.5,1004C 864.853,1033.18 892.519,1068.35 912.5,1109.5C 913.773,1110.08 913.773,1110.74 912.5,1111.5C 898.414,1118.96 884.914,1127.29 872,1136.5C 829.618,1046.21 758.451,1006.71 658.5,1018C 609.395,1022.73 560.395,1028.4 511.5,1035C 459.107,1041.31 406.774,1040.98 354.5,1034C 213.076,1012.22 119.576,933.718 74,798.5C 51.0586,725.645 39.892,650.979 40.5,574.5C 40.7366,508.8 47.57,443.8 61,379.5C 64.0549,365.336 67.7216,351.336 72,337.5C 74.9802,327.704 78.8135,318.37 83.5,309.5 Z"/></g>
<g><path style="opacity:1" fill="#4d4c4c" d="M 2187.5,308.5 C 2194.64,322.08 2200.14,336.413 2204,351.5C 2233.72,471.816 2238.72,593.15 2219,715.5C 2208.09,782.617 2184.09,844.284 2147,900.5C 2104.98,958.296 2049.81,997.796 1981.5,1019C 1919.77,1037.58 1856.77,1043.92 1792.5,1038C 1775.45,1036.8 1758.45,1035.13 1741.5,1033C 1741.04,1032.59 1740.71,1032.09 1740.5,1031.5C 1752.34,1008.25 1755.34,983.919 1749.5,958.5C 1793.43,962.664 1837.43,963.831 1881.5,962C 1938.05,959.925 1989.72,943.259 2036.5,912C 2069.12,887.048 2097.29,857.882 2121,824.5C 2166.8,756.446 2194.47,681.446 2204,599.5C 2215.56,501.538 2210.06,404.538 2187.5,308.5 Z"/></g>
<g><path style="opacity:1" fill="#b2b2b2" d="M 2155.5,449.5 C 2157.75,453.456 2159.25,457.789 2160,462.5C 2170.13,514.836 2172.13,567.502 2166,620.5C 2161.57,664.89 2150.57,707.557 2133,748.5C 2088.51,846.011 2012.68,898.345 1905.5,905.5C 1885.44,905.3 1867.44,899.133 1851.5,887C 1830.22,868.885 1813.22,847.385 1800.5,822.5C 1825.9,789.065 1846.73,752.732 1863,713.5C 1868.13,701.926 1872.97,690.259 1877.5,678.5C 1878.73,679.152 1879.39,680.319 1879.5,682C 1880.99,691.265 1881.66,700.599 1881.5,710C 1880.47,725.815 1879.47,741.648 1878.5,757.5C 1876.8,785.617 1886.47,808.784 1907.5,827C 1928.97,840.693 1952.3,845.026 1977.5,840C 2013.87,831.572 2044.7,813.739 2070,786.5C 2105.32,746.504 2126.66,699.837 2134,646.5C 2137.64,614.592 2138.47,582.592 2136.5,550.5C 2143.22,516.897 2149.55,483.231 2155.5,449.5 Z"/></g>
<g><path style="opacity:1" fill="#666565" d="M 2136.5,550.5 C 2138.47,582.592 2137.64,614.592 2134,646.5C 2126.66,699.837 2105.32,746.504 2070,786.5C 2044.7,813.739 2013.87,831.572 1977.5,840C 1952.3,845.026 1928.97,840.693 1907.5,827C 1886.47,808.784 1876.8,785.617 1878.5,757.5C 1879.47,741.648 1880.47,725.815 1881.5,710C 1881.66,700.599 1880.99,691.265 1879.5,682C 1879.39,680.319 1878.73,679.152 1877.5,678.5C 1903.58,612.53 1924.24,544.863 1939.5,475.5C 1940.27,474.289 1941.11,474.289 1942,475.5C 1953.95,493.676 1960.95,513.676 1963,535.5C 1965.05,568.298 1962.05,600.631 1954,632.5C 1945.98,663.925 1937.64,695.258 1929,726.5C 1925.66,740.539 1923.5,754.706 1922.5,769C 1923.08,812.573 1945.08,831.573 1988.5,826C 2002.74,823.213 2015.41,817.213 2026.5,808C 2049.98,785.235 2068.14,758.735 2081,728.5C 2091.71,704.042 2101.04,679.042 2109,653.5C 2119.29,619.344 2128.45,585.011 2136.5,550.5 Z"/></g>
<g><path style="opacity:1" fill="#90492f" d="M 1696.5,902.5 C 1708.58,918.668 1716.91,936.668 1721.5,956.5C 1690.53,954.28 1659.53,952.613 1628.5,951.5C 1590.49,951.4 1553.16,956.233 1516.5,966C 1462.21,983.295 1419.04,1015.46 1387,1062.5C 1377.05,1077.4 1367.89,1092.73 1359.5,1108.5C 1372.95,1051.27 1398.78,1000.6 1437,956.5C 1463.64,927.53 1491.3,899.53 1520,872.5C 1545.38,846.465 1567.72,818.132 1587,787.5C 1612.89,741.835 1630.89,693.168 1641,641.5C 1642.65,636.185 1645.32,631.518 1649,627.5C 1651.43,629.007 1653.43,631.007 1655,633.5C 1660.56,642.84 1664.56,652.84 1667,663.5C 1672.94,694.569 1671.27,725.236 1662,755.5C 1651.99,786.843 1641.99,818.176 1632,849.5C 1631.33,853.5 1630.67,857.5 1630,861.5C 1626.69,885.732 1636.85,900.565 1660.5,906C 1672.73,907.133 1684.73,905.966 1696.5,902.5 Z"/></g>
<g><path style="opacity:0.004" fill="#3e2900" d="M 2164.5,945.5 C 2165.83,946.167 2165.83,946.167 2164.5,945.5 Z"/></g>
<g><path style="opacity:1" fill="#702c13" d="M 1721.5,956.5 C 1723.69,983.939 1715.35,1007.61 1696.5,1027.5C 1651.97,1019.65 1606.97,1016.49 1561.5,1018C 1498.83,1022.07 1451,1050.57 1418,1103.5C 1411.55,1114.07 1405.39,1124.73 1399.5,1135.5C 1385.99,1126.91 1372.33,1118.58 1358.5,1110.5C 1358.33,1109.51 1358.66,1108.84 1359.5,1108.5C 1367.89,1092.73 1377.05,1077.4 1387,1062.5C 1419.04,1015.46 1462.21,983.295 1516.5,966C 1553.16,956.233 1590.49,951.4 1628.5,951.5C 1659.53,952.613 1690.53,954.28 1721.5,956.5 Z"/></g>
<g><path style="opacity:0.004" fill="#3e2900" d="M 2134.5,977.5 C 2135.83,978.167 2135.83,978.167 2134.5,977.5 Z"/></g>
<g><path style="opacity:0.004" fill="#3e2900" d="M 2132.5,979.5 C 2133.83,980.167 2133.83,980.167 2132.5,979.5 Z"/></g>
<g><path style="opacity:0.996" fill="#621500" d="M 1696.5,1027.5 C 1685.46,1040.87 1673.13,1052.87 1659.5,1063.5C 1654.94,1062.53 1650.44,1062.53 1646,1063.5C 1645.68,1061.43 1644.84,1061.1 1643.5,1062.5C 1633.56,1060.39 1623.56,1059.73 1613.5,1060.5C 1585.97,1057.41 1559.64,1059.24 1534.5,1066C 1507.18,1073.78 1484.02,1088.61 1465,1110.5C 1451.94,1126.61 1441.44,1144.28 1433.5,1163.5C 1421.85,1154.51 1410.52,1145.18 1399.5,1135.5C 1405.39,1124.73 1411.55,1114.07 1418,1103.5C 1451,1050.57 1498.83,1022.07 1561.5,1018C 1606.97,1016.49 1651.97,1019.65 1696.5,1027.5 Z"/></g>
<g><path style="opacity:0.004" fill="#3e2900" d="M 1996.5,1057.5 C 1997.83,1058.17 1997.83,1058.17 1996.5,1057.5 Z"/></g>
<g><path style="opacity:0.918" fill="#42281d" d="M 1810.5,1079.5 C 1830.83,1079.5 1851.17,1079.5 1871.5,1079.5C 1870.38,1080.81 1868.88,1081.48 1867,1081.5C 1848.33,1080.31 1830,1080.31 1812,1081.5C 1810.97,1081.16 1810.47,1080.5 1810.5,1079.5 Z"/></g>
<g><path style="opacity:1" fill="#333332" d="M 1358.5,1110.5 C 1372.33,1118.58 1385.99,1126.91 1399.5,1135.5C 1410.52,1145.18 1421.85,1154.51 1433.5,1163.5C 1436.3,1165.8 1438.96,1168.3 1441.5,1171C 1442.17,1171.67 1442.83,1171.67 1443.5,1171C 1485.54,1127.99 1536.87,1104.32 1597.5,1100C 1642.26,1096.34 1686.92,1097.34 1731.5,1103C 1770.81,1107.83 1810.15,1112.5 1849.5,1117C 1886.85,1121.48 1924.19,1121.48 1961.5,1117C 1978.11,1114.1 1994.44,1110.1 2010.5,1105C 2038.44,1101.95 2057.6,1113.45 2068,1139.5C 2074.07,1158.38 2076.07,1177.72 2074,1197.5C 2067.44,1248.37 2049.94,1295.03 2021.5,1337.5C 2003.47,1364.54 1982.47,1389.21 1958.5,1411.5C 1910.02,1454.19 1858.69,1483.19 1804.5,1498.5C 1802.39,1499.03 1800.55,1500.03 1799,1501.5C 1798.67,1501.17 1798.33,1500.83 1798,1500.5C 1796,1501 1794.34,1502 1793,1503.5C 1792.59,1503.04 1792.09,1502.71 1791.5,1502.5C 1778.4,1505.89 1765.9,1509.22 1754,1512.5C 1750.98,1512.52 1747.98,1512.52 1745,1512.5C 1744.04,1514.66 1742.54,1514.99 1740.5,1513.5C 1735.9,1514.82 1731.4,1515.82 1727,1516.5C 1724.84,1515.32 1722.84,1515.65 1721,1517.5C 1719.94,1516.9 1718.77,1516.57 1717.5,1516.5C 1713.18,1517.13 1708.85,1517.63 1704.5,1518C 1703.97,1518.69 1703.31,1519.19 1702.5,1519.5C 1699.66,1519.48 1696.82,1519.15 1694,1518.5C 1691.47,1518.57 1689.14,1519.23 1687,1520.5C 1664.94,1519.82 1642.61,1519.16 1620,1518.5C 1616.51,1519.16 1613.01,1519.5 1609.5,1519.5C 1608.3,1519.15 1608.3,1518.65 1609.5,1518C 1606.11,1517.25 1602.77,1517.41 1599.5,1518.5C 1596.72,1516.87 1593.72,1516.2 1590.5,1516.5C 1601.46,1560.6 1609.3,1605.27 1614,1650.5C 1619.16,1699.44 1615.83,1747.78 1604,1795.5C 1591.31,1840.64 1568.14,1879.3 1534.5,1911.5C 1496.21,1944.7 1453.37,1968.04 1406,1981.5C 1405.69,1982.31 1405.19,1982.97 1404.5,1983.5C 1403.1,1983.64 1401.6,1983.64 1400,1983.5C 1398.01,1985.91 1395.68,1986.57 1393,1985.5C 1390.76,1986.06 1388.76,1987.06 1387,1988.5C 1385.37,1988.15 1383.54,1988.15 1381.5,1988.5C 1365.49,1977.72 1349.16,1967.38 1332.5,1957.5C 1287.62,1945.89 1246.95,1926.06 1210.5,1898C 1197.22,1887.05 1185.72,1874.55 1176,1860.5C 1166.35,1843.75 1166.02,1826.75 1175,1809.5C 1176.99,1805.36 1179.16,1801.36 1181.5,1797.5C 1188.67,1785.82 1196.34,1774.49 1204.5,1763.5C 1215.06,1749.08 1224.23,1733.75 1232,1717.5C 1235.65,1708.02 1236.32,1698.36 1234,1688.5C 1230.07,1680.91 1225.73,1673.57 1221,1666.5C 1216.69,1656.92 1218.02,1648.25 1225,1640.5C 1232.41,1633.77 1239.07,1626.43 1245,1618.5C 1250.26,1609.2 1252.76,1599.2 1252.5,1588.5C 1251.57,1571.4 1249.74,1554.4 1247,1537.5C 1237.8,1486.31 1229.47,1434.97 1222,1383.5C 1219.43,1367.52 1219.1,1351.52 1221,1335.5C 1223.98,1325.18 1230.48,1318.02 1240.5,1314C 1245.08,1312.36 1249.74,1311.02 1254.5,1310C 1279.5,1307.06 1304.17,1302.39 1328.5,1296C 1341.52,1291.89 1353.52,1285.89 1364.5,1278C 1373.83,1268.65 1378.5,1257.32 1378.5,1244C 1376.08,1220.64 1368.91,1198.81 1357,1178.5C 1349.99,1166.47 1342.49,1154.8 1334.5,1143.5C 1330.04,1127.89 1325.71,1112.22 1321.5,1096.5C 1322.72,1095.39 1324.06,1095.22 1325.5,1096C 1336.26,1101.52 1347.26,1106.36 1358.5,1110.5 Z"/></g>
<g><path style="opacity:1" fill="#ef7a13" d="M 1295.5,1128.5 C 1306.81,1144.66 1317.98,1160.99 1329,1177.5C 1340.06,1194.95 1348.39,1213.62 1354,1233.5C 1354.84,1240.57 1354.51,1247.57 1353,1254.5C 1350.87,1257.63 1348.37,1260.46 1345.5,1263C 1329.48,1271.45 1312.48,1277.12 1294.5,1280C 1274.16,1281.91 1254.16,1285.57 1234.5,1291C 1208.65,1301.84 1195.65,1321.34 1195.5,1349.5C 1197.19,1378.36 1200.52,1407.02 1205.5,1435.5C 1186.33,1477.51 1174.33,1521.51 1169.5,1567.5C 1147.15,1564.85 1124.82,1564.85 1102.5,1567.5C 1097.46,1518.21 1083.63,1471.55 1061,1427.5C 1041.62,1392.12 1013.79,1365.62 977.5,1348C 931.744,1329.43 887.411,1332.43 844.5,1357C 819.596,1372.31 797.596,1391.14 778.5,1413.5C 794.46,1359.12 813.294,1305.78 835,1253.5C 848.825,1223.49 867.325,1196.82 890.5,1173.5C 891.29,1172.21 892.29,1171.04 893.5,1170C 928.419,1145.72 966.752,1128.72 1008.5,1119C 1066.56,1106.41 1125.23,1102.41 1184.5,1107C 1222.45,1109.49 1259.45,1116.66 1295.5,1128.5 Z"/></g>
<g><path style="opacity:1" fill="#ba5700" d="M 1058.5,1131.5 C 1086.07,1130.13 1113.07,1133.3 1139.5,1141C 1163.08,1150.75 1163.41,1161.08 1140.5,1172C 1129.16,1176.08 1117.49,1178.75 1105.5,1180C 1087.52,1181.45 1069.52,1181.79 1051.5,1181C 1032.95,1180.03 1015.61,1175.03 999.5,1166C 994.919,1162.56 993.419,1158.06 995,1152.5C 1001.16,1145.84 1008.66,1141.34 1017.5,1139C 1031.07,1135.19 1044.73,1132.69 1058.5,1131.5 Z"/></g>
<g><path style="opacity:1" fill="#ef7912" d="M 750.5,1162.5 C 746.55,1189.58 733.55,1211.08 711.5,1227C 703.452,1233.22 694.786,1238.38 685.5,1242.5C 656.451,1234.63 627.118,1233.47 597.5,1239C 578.348,1241.9 559.348,1245.56 540.5,1250C 510.21,1258.16 479.877,1266.16 449.5,1274C 426.5,1279.78 403.167,1282.11 379.5,1281C 365.408,1279.3 352.408,1274.64 340.5,1267C 327.75,1263.96 318.917,1268.46 314,1280.5C 312.489,1288.29 314.322,1295.13 319.5,1301C 339.092,1314.32 360.759,1321.32 384.5,1322C 416.493,1373 459.493,1411.66 513.5,1438C 532.634,1446.21 552.301,1452.71 572.5,1457.5C 567.362,1462.47 562.029,1467.3 556.5,1472C 554.783,1473.56 552.783,1474.39 550.5,1474.5C 438.083,1460.42 349.583,1407.42 285,1315.5C 259.272,1277.32 243.606,1235.32 238,1189.5C 236.325,1175.9 238.325,1162.9 244,1150.5C 246.016,1147.41 248.849,1145.74 252.5,1145.5C 293.512,1158.49 335.512,1163.65 378.5,1161C 396.538,1160.18 414.538,1158.84 432.5,1157C 471.831,1152.33 511.164,1147.67 550.5,1143C 597.899,1136.78 645.232,1137.11 692.5,1144C 712.733,1147.47 732.067,1153.63 750.5,1162.5 Z"/></g>
<g><path style="opacity:1" fill="#666565" d="M 1690.5,1140.5 C 1718.39,1188.55 1758.39,1222.38 1810.5,1242C 1830.95,1249.69 1851.95,1255.36 1873.5,1259C 1880.94,1259.93 1888.27,1259.59 1895.5,1258C 1896.58,1256.27 1896.74,1254.44 1896,1252.5C 1894.67,1250.5 1893.33,1248.5 1892,1246.5C 1869.33,1225.17 1846.67,1203.83 1824,1182.5C 1815.76,1173.01 1808.26,1163.01 1801.5,1152.5C 1836.92,1158.09 1872.58,1161.09 1908.5,1161.5C 1927.77,1212.53 1953.93,1259.53 1987,1302.5C 1988.45,1304.46 1990.28,1305.8 1992.5,1306.5C 1927.61,1404.56 1836.27,1460.56 1718.5,1474.5C 1712.06,1469.24 1705.73,1463.74 1699.5,1458C 1700.42,1457.72 1701.08,1457.22 1701.5,1456.5C 1762.05,1442.81 1812.88,1412.81 1854,1366.5C 1866.05,1352.72 1876.89,1338.06 1886.5,1322.5C 1910.51,1321.17 1932.51,1314 1952.5,1301C 1960.81,1290.35 1960.47,1280.01 1951.5,1270C 1944.19,1264.96 1936.53,1264.29 1928.5,1268C 1919.18,1274.49 1908.85,1278.49 1897.5,1280C 1886.87,1281.4 1876.2,1281.74 1865.5,1281C 1851.02,1279.56 1836.68,1277.23 1822.5,1274C 1792.03,1266.47 1761.7,1258.47 1731.5,1250C 1699.72,1241.49 1667.39,1236.65 1634.5,1235.5C 1617.84,1235.72 1601.5,1238.05 1585.5,1242.5C 1569.49,1234.01 1554.99,1223.34 1542,1210.5C 1531.08,1196.32 1524.25,1180.32 1521.5,1162.5C 1543.65,1151.83 1566.99,1145 1591.5,1142C 1624.44,1137.84 1657.44,1137.34 1690.5,1140.5 Z"/></g>
<g><path style="opacity:1" fill="#b2b2b2" d="M 1690.5,1140.5 C 1727.56,1143.94 1764.56,1147.94 1801.5,1152.5C 1808.26,1163.01 1815.76,1173.01 1824,1182.5C 1846.67,1203.83 1869.33,1225.17 1892,1246.5C 1893.33,1248.5 1894.67,1250.5 1896,1252.5C 1896.74,1254.44 1896.58,1256.27 1895.5,1258C 1888.27,1259.59 1880.94,1259.93 1873.5,1259C 1851.95,1255.36 1830.95,1249.69 1810.5,1242C 1758.39,1222.38 1718.39,1188.55 1690.5,1140.5 Z"/></g>
<g><path style="opacity:1" fill="#666565" d="M 2019.5,1249.5 C 1998.72,1231.23 1981.89,1209.89 1969,1185.5C 1964.98,1177.13 1961.81,1168.46 1959.5,1159.5C 1958.17,1159.5 1956.83,1159.5 1955.5,1159.5C 1976.89,1156.53 1998.05,1151.87 2019,1145.5C 2022.27,1145.7 2024.93,1147.03 2027,1149.5C 2030.37,1154.68 2032.37,1160.35 2033,1166.5C 2034.55,1195.18 2030.05,1222.85 2019.5,1249.5 Z"/></g>
<g><path style="opacity:1" fill="#b2b2b2" d="M 1955.5,1159.5 C 1956.83,1159.5 1958.17,1159.5 1959.5,1159.5C 1961.81,1168.46 1964.98,1177.13 1969,1185.5C 1981.89,1209.89 1998.72,1231.23 2019.5,1249.5C 2012.38,1269.4 2003.38,1288.4 1992.5,1306.5C 1990.28,1305.8 1988.45,1304.46 1987,1302.5C 1953.93,1259.53 1927.77,1212.53 1908.5,1161.5C 1924.18,1161.22 1939.85,1160.56 1955.5,1159.5 Z"/></g>
<g><path style="opacity:1" fill="#ba5700" d="M 750.5,1162.5 C 770.312,1173.43 787.979,1187.26 803.5,1204C 785.061,1229.16 769.895,1256.33 758,1285.5C 737.124,1265.64 712.958,1251.31 685.5,1242.5C 694.786,1238.38 703.452,1233.22 711.5,1227C 733.55,1211.08 746.55,1189.58 750.5,1162.5 Z"/></g>
<g><path style="opacity:1" fill="#4d4d4d" d="M 1521.5,1162.5 C 1524.25,1180.32 1531.08,1196.32 1542,1210.5C 1554.99,1223.34 1569.49,1234.01 1585.5,1242.5C 1558.49,1251.59 1534.66,1265.92 1514,1285.5C 1501.79,1256.57 1486.62,1229.41 1468.5,1204C 1483.66,1186.78 1501.33,1172.95 1521.5,1162.5 Z"/></g>
<g><path style="opacity:1" fill="#ba5701" d="M 890.5,1173.5 C 867.325,1196.82 848.825,1223.49 835,1253.5C 813.294,1305.78 794.46,1359.12 778.5,1413.5C 778.167,1414.17 777.833,1414.83 777.5,1415.5C 763.35,1431.65 750.35,1448.65 738.5,1466.5C 751.026,1424.42 764.859,1382.76 780,1341.5C 789.128,1313.91 800.462,1287.24 814,1261.5C 832.903,1226.43 858.403,1197.1 890.5,1173.5 Z"/></g>
<g><path style="opacity:1" fill="#666565" d="M 1465.5,1375.5 C 1453.05,1327.89 1434.89,1282.22 1411,1238.5C 1406.97,1231.1 1402.47,1224.1 1397.5,1217.5C 1394.07,1204.67 1391.24,1191.67 1389,1178.5C 1424.32,1207.83 1451.32,1243.5 1470,1285.5C 1490.71,1337.12 1509.54,1389.45 1526.5,1442.5C 1526.15,1443.7 1525.65,1443.7 1525,1442.5C 1512.27,1413.62 1492.43,1391.28 1465.5,1375.5 Z"/></g>
<g><path style="opacity:1" fill="#ba5700" d="M 1199.5,1196.5 C 1213.5,1196.33 1227.5,1196.5 1241.5,1197C 1254.44,1198.65 1266.77,1202.32 1278.5,1208C 1286.01,1213.69 1286.34,1219.69 1279.5,1226C 1266.66,1232.61 1252.99,1236.61 1238.5,1238C 1215.86,1239.91 1193.53,1238.24 1171.5,1233C 1166.3,1231.05 1161.3,1228.71 1156.5,1226C 1149.56,1219.6 1149.89,1213.6 1157.5,1208C 1170.95,1201.64 1184.95,1197.81 1199.5,1196.5 Z"/></g>
<g><path style="opacity:1" fill="#b2b2b2" d="M 1397.5,1217.5 C 1402.47,1224.1 1406.97,1231.1 1411,1238.5C 1434.89,1282.22 1453.05,1327.89 1465.5,1375.5C 1449.13,1369 1432.13,1366.83 1414.5,1369C 1395.21,1371.96 1376.21,1376.12 1357.5,1381.5C 1356.5,1381.59 1355.67,1381.25 1355,1380.5C 1349.82,1359.13 1344.66,1337.79 1339.5,1316.5C 1351.63,1311.77 1363.3,1305.93 1374.5,1299C 1395.37,1281.4 1403.87,1258.9 1400,1231.5C 1399.23,1226.81 1398.39,1222.14 1397.5,1217.5 Z"/></g>
<g><path style="opacity:1" fill="#ba5700" d="M 1073.5,1252.5 C 1088.02,1251.66 1102.36,1252.83 1116.5,1256C 1122.33,1257.17 1127.17,1260.01 1131,1264.5C 1132.03,1268.18 1131.19,1271.35 1128.5,1274C 1120.46,1278.68 1111.79,1281.35 1102.5,1282C 1091.5,1282.67 1080.5,1282.67 1069.5,1282C 1059.77,1280.71 1051.27,1276.88 1044,1270.5C 1043.07,1267.15 1043.9,1264.32 1046.5,1262C 1049.34,1260.08 1052.34,1258.41 1055.5,1257C 1061.54,1255.16 1067.54,1253.66 1073.5,1252.5 Z"/></g>
<g><path style="opacity:1" fill="#d88457" d="M 600.5,1420.5 C 608.891,1405.99 613.891,1390.32 615.5,1373.5C 616.055,1357.73 609.055,1347.23 594.5,1342C 565.048,1335.8 535.382,1334.8 505.5,1339C 488.516,1340.37 471.849,1342.87 455.5,1346.5C 447.14,1338.13 439.473,1329.13 432.5,1319.5C 477.837,1308.33 523.17,1296.83 568.5,1285C 596.12,1278.24 624.12,1275.57 652.5,1277C 689.422,1282.12 719.422,1299.12 742.5,1328C 732.939,1354.02 723.772,1380.18 715,1406.5C 687.439,1417.48 658.773,1422.81 629,1422.5C 619.289,1422.65 609.789,1421.99 600.5,1420.5 Z"/></g>
<g><path style="opacity:1" fill="#656565" d="M 1339.5,1316.5 C 1344.66,1337.79 1349.82,1359.13 1355,1380.5C 1355.67,1381.25 1356.5,1381.59 1357.5,1381.5C 1321.12,1393.02 1285.78,1407.35 1251.5,1424.5C 1247.36,1405.38 1244.53,1386.04 1243,1366.5C 1242.06,1357.07 1242.39,1347.73 1244,1338.5C 1248.64,1335.17 1253.81,1333.01 1259.5,1332C 1286.62,1328.95 1313.29,1323.78 1339.5,1316.5 Z"/></g>
<g><path style="opacity:1" fill="#fec898" d="M 1102.5,1567.5 C 1093.29,1568.36 1084.29,1570.2 1075.5,1573C 1066.82,1576.02 1060.32,1581.52 1056,1589.5C 1055.61,1606.67 1060.28,1622.33 1070,1636.5C 1081.86,1652.03 1096.86,1663.36 1115,1670.5C 1115.67,1685.83 1115.67,1701.17 1115,1716.5C 1089.21,1762.48 1050.04,1781.98 997.5,1775C 964.055,1768.28 934.722,1753.61 909.5,1731C 898.004,1724.79 888.504,1726.95 881,1737.5C 876.612,1747.36 878.112,1756.2 885.5,1764C 919.562,1793.86 959.229,1811.52 1004.5,1817C 1058.75,1820.27 1102.59,1800.77 1136,1758.5C 1147.29,1773.46 1160.79,1785.96 1176.5,1796C 1178.02,1797.01 1179.69,1797.51 1181.5,1797.5C 1179.16,1801.36 1176.99,1805.36 1175,1809.5C 1166.02,1826.75 1166.35,1843.75 1176,1860.5C 1185.72,1874.55 1197.22,1887.05 1210.5,1898C 1246.95,1926.06 1287.62,1945.89 1332.5,1957.5C 1317.15,1961.27 1301.49,1963.93 1285.5,1965.5C 1241.36,1949.52 1202.86,1924.86 1170,1891.5C 1166.38,1887.09 1162.88,1882.59 1159.5,1878C 1094.41,1879.64 1029.75,1875.31 965.5,1865C 921.823,1857.75 880.489,1843.75 841.5,1823C 785.956,1791.42 753.122,1743.92 743,1680.5C 738.345,1650.97 737.345,1621.3 740,1591.5C 746.609,1531.53 759.109,1472.86 777.5,1415.5C 777.833,1414.83 778.167,1414.17 778.5,1413.5C 797.596,1391.14 819.596,1372.31 844.5,1357C 887.411,1332.43 931.744,1329.43 977.5,1348C 1013.79,1365.62 1041.62,1392.12 1061,1427.5C 1083.63,1471.55 1097.46,1518.21 1102.5,1567.5 Z"/></g>
<g><path style="opacity:1" fill="#fec898" d="M 600.5,1420.5 C 543.16,1413 494.827,1388.33 455.5,1346.5C 471.849,1342.87 488.516,1340.37 505.5,1339C 535.382,1334.8 565.048,1335.8 594.5,1342C 609.055,1347.23 616.055,1357.73 615.5,1373.5C 613.891,1390.32 608.891,1405.99 600.5,1420.5 Z"/></g>
<g><path style="opacity:1" fill="#4c4c4c" d="M 1721.5,1336.5 C 1753.73,1337.35 1785.73,1340.52 1817.5,1346C 1779.77,1385.87 1733.77,1410.53 1679.5,1420C 1676.45,1420.82 1673.45,1420.65 1670.5,1419.5C 1660.48,1402.9 1655.98,1384.9 1657,1365.5C 1657.93,1358.14 1661.1,1351.97 1666.5,1347C 1672.13,1343.68 1678.13,1341.35 1684.5,1340C 1696.94,1338.34 1709.27,1337.18 1721.5,1336.5 Z"/></g>
<g><path style="opacity:0.004" fill="#3e2900" d="M 2021.5,1337.5 C 2022.83,1338.17 2022.83,1338.17 2021.5,1337.5 Z"/></g>
<g><path style="opacity:1" fill="#fec797" d="M 1295.5,1128.5 C 1308.74,1132.91 1321.74,1137.91 1334.5,1143.5C 1342.49,1154.8 1349.99,1166.47 1357,1178.5C 1368.91,1198.81 1376.08,1220.64 1378.5,1244C 1378.5,1257.32 1373.83,1268.65 1364.5,1278C 1353.52,1285.89 1341.52,1291.89 1328.5,1296C 1304.17,1302.39 1279.5,1307.06 1254.5,1310C 1249.74,1311.02 1245.08,1312.36 1240.5,1314C 1230.48,1318.02 1223.98,1325.18 1221,1335.5C 1219.1,1351.52 1219.43,1367.52 1222,1383.5C 1229.47,1434.97 1237.8,1486.31 1247,1537.5C 1249.74,1554.4 1251.57,1571.4 1252.5,1588.5C 1252.76,1599.2 1250.26,1609.2 1245,1618.5C 1239.07,1626.43 1232.41,1633.77 1225,1640.5C 1218.02,1648.25 1216.69,1656.92 1221,1666.5C 1225.73,1673.57 1230.07,1680.91 1234,1688.5C 1236.32,1698.36 1235.65,1708.02 1232,1717.5C 1224.23,1733.75 1215.06,1749.08 1204.5,1763.5C 1198.29,1761.39 1192.62,1758.22 1187.5,1754C 1175.31,1743.4 1165.14,1731.24 1157,1717.5C 1156.5,1701.5 1156.33,1685.5 1156.5,1669.5C 1187.73,1658.43 1207.23,1636.76 1215,1604.5C 1217.77,1594.23 1215.27,1585.73 1207.5,1579C 1195.69,1572.45 1183.02,1568.62 1169.5,1567.5C 1174.33,1521.51 1186.33,1477.51 1205.5,1435.5C 1200.52,1407.02 1197.19,1378.36 1195.5,1349.5C 1195.65,1321.34 1208.65,1301.84 1234.5,1291C 1254.16,1285.57 1274.16,1281.91 1294.5,1280C 1312.48,1277.12 1329.48,1271.45 1345.5,1263C 1348.37,1260.46 1350.87,1257.63 1353,1254.5C 1354.51,1247.57 1354.84,1240.57 1354,1233.5C 1348.39,1213.62 1340.06,1194.95 1329,1177.5C 1317.98,1160.99 1306.81,1144.66 1295.5,1128.5 Z"/></g>
<g><path style="opacity:0.004" fill="#3e2900" d="M 1958.5,1411.5 C 1959.83,1412.17 1959.83,1412.17 1958.5,1411.5 Z"/></g>
<g><path style="opacity:1" fill="#d88356" d="M 777.5,1415.5 C 759.109,1472.86 746.609,1531.53 740,1591.5C 737.345,1621.3 738.345,1650.97 743,1680.5C 753.122,1743.92 785.956,1791.42 841.5,1823C 880.489,1843.75 921.823,1857.75 965.5,1865C 1029.75,1875.31 1094.41,1879.64 1159.5,1878C 1162.88,1882.59 1166.38,1887.09 1170,1891.5C 1202.86,1924.86 1241.36,1949.52 1285.5,1965.5C 1235.02,1971.65 1184.18,1974.65 1133,1974.5C 1074.82,1974.93 1016.99,1970.77 959.5,1962C 910.137,1954.77 863.137,1940.1 818.5,1918C 756.024,1885.93 717.524,1835.43 703,1766.5C 696.444,1730.41 694.778,1694.08 698,1657.5C 705.065,1592.43 718.565,1528.77 738.5,1466.5C 750.35,1448.65 763.35,1431.65 777.5,1415.5 Z"/></g>
<g><path style="opacity:1" fill="#631500" d="M 888.5,1422.5 C 927.32,1421.33 953.487,1439 967,1475.5C 976.871,1508.61 971.537,1538.95 951,1566.5C 923.198,1595.08 892.364,1598.91 858.5,1578C 832.964,1555.76 822.13,1527.59 826,1493.5C 831.632,1456.12 852.466,1432.45 888.5,1422.5 Z"/></g>
<g><path style="opacity:1" fill="#b2b1b1" d="M 1365.5,1422.5 C 1402.85,1422.76 1428.01,1440.43 1441,1475.5C 1451.44,1509.86 1445.44,1540.86 1423,1568.5C 1397.92,1593.09 1369.75,1597.26 1338.5,1581C 1316.1,1565.39 1303.6,1543.89 1301,1516.5C 1297.98,1482.4 1309.81,1454.9 1336.5,1434C 1345.6,1428.44 1355.27,1424.6 1365.5,1422.5 Z"/></g>
<g><path style="opacity:1" fill="#fe0402" d="M 1364.5,1445.5 C 1392.02,1444.18 1411.19,1456.18 1422,1481.5C 1431.54,1509.78 1426.04,1534.61 1405.5,1556C 1382.61,1573.29 1360.27,1572.62 1338.5,1554C 1314.59,1524.76 1313.42,1494.59 1335,1463.5C 1343.29,1454.78 1353.12,1448.78 1364.5,1445.5 Z"/></g>
<g><path style="opacity:1" fill="#fdfcfc" d="M 873.5,1453.5 C 888.447,1452.93 897.947,1459.93 902,1474.5C 904.759,1488.55 900.926,1500.39 890.5,1510C 871.715,1516.6 859.881,1510.1 855,1490.5C 852.364,1473.48 858.531,1461.15 873.5,1453.5 Z"/></g>
<g><path style="opacity:1" fill="#4d4c4c" d="M 1701.5,1456.5 C 1701.08,1457.22 1700.42,1457.72 1699.5,1458C 1705.73,1463.74 1712.06,1469.24 1718.5,1474.5C 1709.75,1476.45 1700.75,1477.61 1691.5,1478C 1657.09,1479.35 1622.75,1478.35 1588.5,1475C 1584.48,1474.85 1580.64,1474.02 1577,1472.5C 1575.55,1466.52 1573.72,1460.69 1571.5,1455C 1572.33,1454.83 1573.17,1454.67 1574,1454.5C 1616.37,1464.33 1658.87,1465 1701.5,1456.5 Z"/></g>
<g><path style="opacity:1" fill="#ba5700" d="M 550.5,1474.5 C 552.783,1474.39 554.783,1473.56 556.5,1472C 562.029,1467.3 567.362,1462.47 572.5,1457.5C 615.041,1464.96 657.374,1463.96 699.5,1454.5C 698.148,1460.58 696.481,1466.58 694.5,1472.5C 678.669,1475.56 662.669,1477.39 646.5,1478C 624.5,1478.67 602.5,1478.67 580.5,1478C 570.298,1477.31 560.298,1476.14 550.5,1474.5 Z"/></g>
<g><path style="opacity:1" fill="#666565" d="M 1375.5,1882.5 C 1379.97,1885.37 1384.97,1886.87 1390.5,1887C 1414.7,1888.6 1436.03,1881.6 1454.5,1866C 1473.85,1849.24 1487.52,1829.08 1495.5,1805.5C 1511.14,1792.03 1525.64,1777.36 1539,1761.5C 1553.93,1742.79 1558.6,1721.79 1553,1698.5C 1543.94,1683.87 1531.11,1679.2 1514.5,1684.5C 1514.22,1657.1 1512.72,1629.77 1510,1602.5C 1509.79,1600.94 1509.29,1599.61 1508.5,1598.5C 1528.48,1579.54 1539.65,1556.2 1542,1528.5C 1542.59,1516.1 1542.26,1503.77 1541,1491.5C 1557.4,1546.44 1568.4,1602.44 1574,1659.5C 1578.38,1703.87 1574.72,1747.54 1563,1790.5C 1545.68,1843.66 1512.85,1884.16 1464.5,1912C 1434.01,1928.94 1401.84,1941.78 1368,1950.5C 1340.57,1938.8 1313.07,1927.3 1285.5,1916C 1316.48,1907.34 1346.48,1896.17 1375.5,1882.5 Z"/></g>
<g><path style="opacity:1" fill="#fffbfb" d="M 1370.5,1501.5 C 1382.26,1502.32 1387.43,1508.65 1386,1520.5C 1382.12,1530.7 1375.28,1533.53 1365.5,1529C 1359.96,1522.42 1359.13,1515.26 1363,1507.5C 1365.13,1504.85 1367.63,1502.85 1370.5,1501.5 Z"/></g>
<g><path style="opacity:1" fill="#631601" d="M 1169.5,1567.5 C 1183.02,1568.62 1195.69,1572.45 1207.5,1579C 1215.27,1585.73 1217.77,1594.23 1215,1604.5C 1207.23,1636.76 1187.73,1658.43 1156.5,1669.5C 1156.33,1685.5 1156.5,1701.5 1157,1717.5C 1165.14,1731.24 1175.31,1743.4 1187.5,1754C 1192.62,1758.22 1198.29,1761.39 1204.5,1763.5C 1196.34,1774.49 1188.67,1785.82 1181.5,1797.5C 1179.69,1797.51 1178.02,1797.01 1176.5,1796C 1160.79,1785.96 1147.29,1773.46 1136,1758.5C 1102.59,1800.77 1058.75,1820.27 1004.5,1817C 959.229,1811.52 919.562,1793.86 885.5,1764C 878.112,1756.2 876.612,1747.36 881,1737.5C 888.504,1726.95 898.004,1724.79 909.5,1731C 934.722,1753.61 964.055,1768.28 997.5,1775C 1050.04,1781.98 1089.21,1762.48 1115,1716.5C 1115.67,1701.17 1115.67,1685.83 1115,1670.5C 1096.86,1663.36 1081.86,1652.03 1070,1636.5C 1060.28,1622.33 1055.61,1606.67 1056,1589.5C 1060.32,1581.52 1066.82,1576.02 1075.5,1573C 1084.29,1570.2 1093.29,1568.36 1102.5,1567.5C 1124.82,1564.85 1147.15,1564.85 1169.5,1567.5 Z"/></g>
<g><path style="opacity:1" fill="#fd2a2a" d="M 1118.5,1589.5 C 1142.91,1589.42 1167.25,1590.75 1191.5,1593.5C 1188.82,1617.38 1176.49,1634.55 1154.5,1645C 1139.63,1651.79 1125.29,1650.79 1111.5,1642C 1092.68,1631.18 1082.35,1615.02 1080.5,1593.5C 1093.33,1592.34 1105.99,1591 1118.5,1589.5 Z"/></g>
<g><path style="opacity:1" fill="#b2b2b2" d="M 1508.5,1598.5 C 1509.29,1599.61 1509.79,1600.94 1510,1602.5C 1512.72,1629.77 1514.22,1657.1 1514.5,1684.5C 1488.34,1695.94 1461,1703.44 1432.5,1707C 1410.6,1709.1 1389.27,1706.6 1368.5,1699.5C 1365.51,1698 1362.84,1696 1360.5,1693.5C 1364.35,1677.93 1367.68,1662.27 1370.5,1646.5C 1399.81,1644.51 1428.48,1638.68 1456.5,1629C 1475.61,1621.62 1492.94,1611.46 1508.5,1598.5 Z"/></g>
<g><path style="opacity:1" fill="#656565" d="M 1370.5,1646.5 C 1367.68,1662.27 1364.35,1677.93 1360.5,1693.5C 1349.86,1685.18 1337.86,1682.18 1324.5,1684.5C 1300.99,1677.89 1276.99,1674.06 1252.5,1673C 1248.46,1667.76 1244.79,1662.26 1241.5,1656.5C 1248.54,1650.3 1255.04,1643.63 1261,1636.5C 1282.82,1641.9 1304.99,1645.07 1327.5,1646C 1341.83,1646.5 1356.16,1646.67 1370.5,1646.5 Z"/></g>
<g><path style="opacity:1" fill="#4d4d4d" d="M 1360.5,1693.5 C 1362.84,1696 1365.51,1698 1368.5,1699.5C 1368.06,1699.43 1367.73,1699.6 1367.5,1700C 1377.6,1709.76 1385.77,1720.93 1392,1733.5C 1395.63,1741.77 1395.13,1749.77 1390.5,1757.5C 1393.98,1760.48 1396.48,1764.15 1398,1768.5C 1404.44,1788.98 1405.1,1809.65 1400,1830.5C 1396.57,1842.3 1389.07,1849.8 1377.5,1853C 1372.46,1853.88 1367.79,1852.88 1363.5,1850C 1359.03,1846.53 1354.87,1842.7 1351,1838.5C 1349.91,1850.84 1345.41,1861.67 1337.5,1871C 1326.82,1877.3 1316.48,1876.63 1306.5,1869C 1303,1865.5 1299.5,1862 1296,1858.5C 1288.61,1882.78 1273.11,1890.28 1249.5,1881C 1238.83,1875.33 1229.66,1867.83 1222,1858.5C 1212.94,1846.04 1206.27,1832.37 1202,1817.5C 1201.33,1814.17 1201.33,1810.83 1202,1807.5C 1209.03,1796.09 1216.53,1785.09 1224.5,1774.5C 1226.7,1776.64 1229.37,1778.14 1232.5,1779C 1245.65,1782.6 1258.98,1783.43 1272.5,1781.5C 1270.99,1770.24 1270.15,1758.91 1270,1747.5C 1268.27,1739.97 1265.93,1732.64 1263,1725.5C 1261.56,1721.59 1259.39,1718.26 1256.5,1715.5C 1257.74,1707.22 1258.41,1698.88 1258.5,1690.5C 1263.01,1690.59 1267.01,1692.09 1270.5,1695C 1274.75,1698.75 1278.42,1702.91 1281.5,1707.5C 1289.71,1696.16 1300.21,1693.16 1313,1698.5C 1315.21,1692.35 1319.05,1687.69 1324.5,1684.5C 1337.86,1682.18 1349.86,1685.18 1360.5,1693.5 Z"/></g>
<g><path style="opacity:1" fill="#b1b1b1" d="M 1335.5,1707.5 C 1338.76,1708.46 1341.76,1709.96 1344.5,1712C 1355.28,1720.6 1363.61,1731.1 1369.5,1743.5C 1366.74,1746.72 1363.41,1749.22 1359.5,1751C 1355.38,1752.21 1351.38,1753.71 1347.5,1755.5C 1344.05,1747.33 1340.88,1738.99 1338,1730.5C 1336.84,1722.86 1336,1715.2 1335.5,1707.5 Z"/></g>
<g><path style="opacity:1" fill="#b1b1b1" d="M 1256.5,1715.5 C 1259.39,1718.26 1261.56,1721.59 1263,1725.5C 1265.93,1732.64 1268.27,1739.97 1270,1747.5C 1270.15,1758.91 1270.99,1770.24 1272.5,1781.5C 1258.98,1783.43 1245.65,1782.6 1232.5,1779C 1229.37,1778.14 1226.7,1776.64 1224.5,1774.5C 1238.54,1756.76 1249.21,1737.09 1256.5,1715.5 Z"/></g>
<g><path style="opacity:1" fill="#b0b0b0" d="M 1301.5,1720.5 C 1302.5,1720.41 1303.33,1720.75 1304,1721.5C 1313.8,1735.77 1320.3,1751.43 1323.5,1768.5C 1318.42,1769.69 1313.42,1771.19 1308.5,1773C 1304.85,1773.5 1301.18,1773.67 1297.5,1773.5C 1295.9,1761.21 1295.4,1748.88 1296,1736.5C 1296.95,1730.8 1298.79,1725.47 1301.5,1720.5 Z"/></g>
<g><path style="opacity:1" fill="#b1b0b0" d="M 1366.5,1778.5 C 1369.83,1778.5 1373.17,1778.5 1376.5,1778.5C 1378.5,1791.74 1379,1805.08 1378,1818.5C 1377.88,1821.93 1376.72,1824.93 1374.5,1827.5C 1363.15,1815.14 1355.15,1800.81 1350.5,1784.5C 1355.97,1782.68 1361.31,1780.68 1366.5,1778.5 Z"/></g>
<g><path style="opacity:1" fill="#b1b1b1" d="M 1311.5,1798.5 C 1316.5,1798.5 1321.5,1798.5 1326.5,1798.5C 1328.17,1814.25 1327.67,1829.91 1325,1845.5C 1324.64,1847.42 1323.81,1849.09 1322.5,1850.5C 1314.1,1842.71 1307.93,1833.38 1304,1822.5C 1301.7,1816.29 1299.86,1809.96 1298.5,1803.5C 1302.72,1801.21 1307.05,1799.54 1311.5,1798.5 Z"/></g>
<g><path style="opacity:1" fill="#b1b1b1" d="M 1495.5,1805.5 C 1487.52,1829.08 1473.85,1849.24 1454.5,1866C 1436.03,1881.6 1414.7,1888.6 1390.5,1887C 1384.97,1886.87 1379.97,1885.37 1375.5,1882.5C 1418.72,1861.57 1458.72,1835.9 1495.5,1805.5 Z"/></g>
<g><path style="opacity:1" fill="#b2b2b2" d="M 1241.5,1809.5 C 1251.17,1809.33 1260.84,1809.5 1270.5,1810C 1272.1,1810.27 1273.6,1810.77 1275,1811.5C 1277.5,1826.08 1276.5,1840.42 1272,1854.5C 1270.76,1859.75 1267.6,1861.58 1262.5,1860C 1250.05,1853.89 1240.55,1844.72 1234,1832.5C 1230.81,1826.77 1228.31,1820.77 1226.5,1814.5C 1231.53,1812.6 1236.53,1810.93 1241.5,1809.5 Z"/></g>
<g><path style="opacity:0.004" fill="#3e2900" d="M 1534.5,1911.5 C 1535.83,1912.17 1535.83,1912.17 1534.5,1911.5 Z"/></g>
</svg>
